<?xml version="1.0" encoding="UTF-8" standalone="no"?>
<svg
   xmlns:dc="http://purl.org/dc/elements/1.1/"
   xmlns:cc="http://creativecommons.org/ns#"
   xmlns:rdf="http://www.w3.org/1999/02/22-rdf-syntax-ns#"
   xmlns:svg="http://www.w3.org/2000/svg"
   xmlns="http://www.w3.org/2000/svg"
   xmlns:sodipodi="http://sodipodi.sourceforge.net/DTD/sodipodi-0.dtd"
   xmlns:inkscape="http://www.inkscape.org/namespaces/inkscape"
   version="1.1"
   width="600"
   height="600"
   viewBox="0 0 3061.6071 3061.6071"
   id="svg8"
   sodipodi:docname="cerebral.svg"
   inkscape:version="1.0.1 (3bc2e813f5, 2020-09-07)"
   inkscape:export-filename="F:\repos\af-icons\cerebral.png"
   inkscape:export-xdpi="95.839996"
   inkscape:export-ydpi="95.839996">
  <metadata
     id="metadata14">
    <rdf:RDF>
      <cc:Work
         rdf:about="">
        <dc:format>image/svg+xml</dc:format>
        <dc:type
           rdf:resource="http://purl.org/dc/dcmitype/StillImage" />
        <dc:title></dc:title>
      </cc:Work>
    </rdf:RDF>
  </metadata>
  <defs
     id="defs12" />
  <sodipodi:namedview
     pagecolor="#ffffff"
     bordercolor="#666666"
     borderopacity="1"
     objecttolerance="10"
     gridtolerance="10"
     guidetolerance="10"
     inkscape:pageopacity="0"
     inkscape:pageshadow="2"
     inkscape:window-width="1920"
     inkscape:window-height="1027"
     id="namedview10"
     showgrid="false"
     showguides="false"
     fit-margin-top="0"
     fit-margin-left="0"
     fit-margin-right="0"
     fit-margin-bottom="0"
     inkscape:zoom="1.0715625"
     inkscape:cx="411.75134"
     inkscape:cy="360.64729"
     inkscape:window-x="1912"
     inkscape:window-y="22"
     inkscape:window-maximized="1"
     inkscape:current-layer="svg8"
     inkscape:document-rotation="0"
     units="px" />
  <g
     id="g990"
     transform="matrix(4.8103935,0,0,4.8103935,-1692.1601,-1686.6917)">
    <circle
       style="fill:#0094ff;fill-opacity:1;stroke:#000000;stroke-width:46.0142;stroke-miterlimit:4;stroke-dasharray:none;paint-order:stroke fill markers;stop-color:#000000"
       id="path72"
       cx="670"
       cy="668.86322"
       r="295.22125" />
    <path
       id="path4"
       style="fill:#000000;stroke:#000000;stroke-width:3;stroke-miterlimit:4;stroke-dasharray:none"
       d="m 140.1875,73.910156 c 0.0358,1.524702 -0.39661,4.215276 -1.24023,7.027344 -1.76378,6.467192 -2.74511,7.251953 -8.23243,7.251953 -3.52756,0 -8.23098,0.587855 -10.38672,1.175781 -2.74365,0.783902 -4.50711,-0.0012 -5.29101,-1.960937 -0.97988,-2.155731 1.17601,-3.723176 8.03516,-5.878906 8.03499,-2.743657 2.93999,-2.547682 -5.87891,0 -2.35171,0.783902 -4.3111,-0.588339 -5.87891,-3.919922 -0.10431,-0.243393 -0.22237,-0.457504 -0.33203,-0.69336 a 57.856132,57.856132 0 0 0 -1.87304,0.740235 c 0.94626,1.754298 2.19432,4.436499 3.38085,7.205078 2.93964,7.251093 2.93992,7.250412 -4.70312,11.169922 -4.31146,2.15573 -7.839844,4.508436 -7.839844,4.900386 0,0.58793 5.290624,-1.568803 11.757814,-4.900386 7.05512,-3.527559 14.69893,-5.878907 19.40234,-5.878906 7.44707,0 7.6431,-0.194775 9.79883,-9.013672 0.8117,-3.314427 1.37735,-5.462274 2.32813,-6.666016 a 57.856132,57.856132 0 0 0 -3.04688,-0.558594 z m 22.17969,8.361328 c -0.1613,0.77219 -0.45753,1.675521 -0.88281,2.78125 -0.97988,2.743657 -1.76402,2.743657 -6.85938,0 -8.035,-4.115485 -7.05523,-1.959307 1.76367,3.332032 11.36658,7.251093 13.52177,8.23201 8.81836,4.3125 -3.95782,-3.097425 -4.43361,-3.483403 -1.04297,-9.234375 a 57.856132,57.856132 0 0 0 -1.79687,-1.191407 z m -60.91407,7.183594 c -0.1731,-0.01464 -0.47702,0.08031 -0.91796,0.300781 -2.35171,1.371829 -5.879429,4.508959 -8.03516,7.056641 -2.649552,3.48625 -3.439362,4.46965 -8.884766,1.511719 a 57.856132,57.856132 0 0 0 -1.09375,1.65039 c 1.239512,0.645221 2.851973,1.677021 5.080078,3.109371 8.230972,5.48732 8.230057,5.48719 4.310547,12.73829 -1.959755,4.11548 -3.722656,8.81825 -3.722656,10.58203 0,1.76378 -1.764782,2.93945 -4.900391,2.93945 -5.095363,0 -5.877795,2.35117 -2.742187,8.81836 1.567804,3.33158 1.567105,2.94103 0.783203,-1.56641 -0.979877,-5.09536 -0.784368,-5.29297 7.642578,-5.29297 8.622922,0 8.819578,0.19621 10.191406,6.85938 1.371828,7.64304 1.372058,7.64276 6.859378,4.70312 3.33158,-1.76378 5.28996,-0.78356 11.95312,5.09571 6.85915,6.27121 8.81929,7.05605 14.89453,6.07617 3.91951,-0.58793 9.6033,-3.52713 13.13086,-7.05469 6.07524,-5.87926 6.27106,-5.87908 13.32617,-2.93945 3.91952,1.5678 7.25196,3.52731 7.25196,4.11523 0,3.13561 -6.46725,12.73818 -9.79883,14.50196 -3.91951,2.15573 -3.92087,2.15515 0.97852,9.40625 2.45713,3.60891 3.90733,6.09504 4.39062,7.96093 a 57.856132,57.856132 0 0 0 1.91602,-1.26172 c -0.88009,-1.03751 -1.86872,-2.54468 -3.16993,-4.54296 -4.89938,-7.83902 -5.09588,-8.81958 -2.15625,-10.19141 1.76378,-0.97988 5.87873,-6.85898 8.81836,-13.32617 3.91951,-8.23097 6.46732,-11.36723 8.62305,-10.7793 5.89038,1.63622 9.50821,2.5427 11.8457,2.54492 a 57.856132,57.856132 0 0 0 0.36133,-1.97656 c -1.33569,-0.1509 -3.99612,-0.64356 -7.11133,-1.35156 -6.85914,-1.56781 -8.23095,-1.37131 -10.97461,2.15625 -2.93963,3.91951 -3.33226,3.91815 -10.1914,0.97851 -6.66317,-2.74365 -7.05476,-3.33038 -5.87891,-9.01367 0.7839,-4.50743 1.8e-4,-7.64299 -2.93945,-11.5625 -3.72354,-5.09536 -3.72284,-5.68275 -0.7832,-8.81836 2.93963,-2.93963 3.52643,-2.7438 7.83789,2.35157 4.70341,5.29133 4.70404,5.29141 0.39257,-1.17579 -4.31146,-6.46719 -4.31221,-6.46771 -9.01562,-2.15625 -4.50744,4.11549 -4.50611,4.11425 -0.39063,9.60157 8.035,10.77865 -1.37277,28.22185 -16.46289,30.76953 -6.07524,0.7839 -8.03413,0.19501 -14.10937,-5.48828 -4.89939,-4.50744 -7.64383,-9.01468 -8.42774,-13.91407 -0.97987,-6.66316 -0.39238,-8.23132 7.05469,-15.48242 7.44707,-7.44707 8.62262,-8.03523 15.67774,-6.85937 6.66316,0.97987 7.64376,0.58946 9.60351,-3.91797 1.37183,-2.74366 2.35156,-6.07673 2.35156,-7.644533 0,-3.723535 2.15575,-3.722245 10.38672,0.197265 4.70342,2.351708 8.23221,6.271678 11.75977,13.718748 6.66317,13.32634 6.66317,16.06895 0,17.04883 -5.09536,0.7839 -5.09673,0.78383 0.97851,1.17578 4.50744,0.19598 6.27149,-0.58841 6.27149,-2.74414 0,-1.76378 1.96013,-3.9179 4.50781,-5.09375 4.31146,-1.95975 4.31213,-1.96035 -0.19531,-0.98047 -3.52756,0.58793 -5.09682,-0.58882 -8.23242,-6.66406 -3.49378,-6.80367 -3.53365,-7.3314 9.40429,-15.9375 a 57.856132,57.856132 0 0 0 -0.79101,-1.189453 c -1.06873,0.847289 -2.78614,1.813193 -5.28125,3.212893 -5.48732,3.13561 -8.23043,3.91936 -8.81836,2.35156 -0.39195,-1.17585 -5.09604,-4.507006 -10.19141,-7.054688 -9.40682,-4.703412 -9.60149,-4.898688 -10.77734,-0.783203 -1.17585,3.331584 -2.35257,3.722065 -7.25195,2.742188 -8.42695,-1.959755 -17.44231,0.392882 -24.10547,6.076173 -5.87927,5.09536 -5.87798,5.09595 0.19726,0.98047 7.83902,-5.09537 15.08934,-6.860775 23.32031,-5.29297 6.07525,1.17585 6.66222,1.76412 4.89844,5.0957 -1.5678,2.93963 -3.33104,3.52871 -8.81836,2.54883 -6.27121,-0.97988 -7.83805,-0.19581 -15.87304,8.03516 -8.23097,8.03499 -9.01504,9.60183 -8.03516,15.87304 0.97988,5.48732 0.3908,7.25056 -2.54883,8.81836 -3.33158,1.76378 -3.91985,1.17681 -5.0957,-4.89844 -0.979879,-5.48731 -2.155373,-6.85937 -5.878908,-6.85937 -4.703412,0 -5.879049,-2.74378 -3.527343,-8.62305 0.783902,-2.15573 2.743262,-2.74417 6.466797,-2.15625 4.899384,0.97988 4.899354,0.98124 0.58789,-0.97851 -3.723534,-1.56781 -4.114679,-2.54799 -2.546875,-5.6836 1.76378,-2.93963 1.175997,-4.31235 -2.351562,-6.66406 -4.311461,-2.93963 -4.311677,-2.93965 3.527343,-10.386718 3.503058,-3.184601 5.195438,-5.333041 4.445308,-5.396484 z m 83.5625,20.126952 c -4.14408,2.16543 -6.78561,3.91004 -6.08984,4.08399 0.97988,0 3.33126,-0.98106 5.29102,-1.96094 0.51443,-0.26947 0.95838,-0.51255 1.34765,-0.70508 a 57.856132,57.856132 0 0 0 -0.54883,-1.41797 z m -101.447261,2.66602 c -0.573429,-0.0976 -1.30806,1.78524 -2.042968,4.35742 -0.979878,4.11548 -2.155372,4.70253 -5.878907,3.72265 -0.414989,-0.1092 -0.787624,-0.18536 -1.142578,-0.24804 a 57.856132,57.856132 0 0 0 -0.429687,2.51367 c 0.856858,-0.2589 1.895194,-0.23546 3.140625,0.0859 3.723534,0.7839 4.899028,0.19622 5.878906,-4.11524 0.783902,-2.93963 0.979842,-5.6816 0.587891,-6.26953 -0.03675,-0.0245 -0.07505,-0.0404 -0.113282,-0.0469 z m 105.566411,17.13476 c -0.63427,0.20352 -1.39332,0.37912 -2.36915,0.54883 -5.48731,0.7839 -5.48731,0.78383 0,1.17578 0.98738,0.0395 1.74728,0.10543 2.39258,0.19922 a 57.856132,57.856132 0 0 0 0.002,-0.22656 57.856132,57.856132 0 0 0 -0.0254,-1.69727 z m -99.886723,8.25781 c -0.602854,-0.0991 -0.323793,1.20789 0.705078,3.26563 2.155731,3.91951 1.566873,4.50826 -6.076172,7.83984 -2.679294,1.11638 -5.076861,2.08993 -6.740234,2.66211 a 57.856132,57.856132 0 0 0 0.65039,1.6543 c 5.378317,-2.20821 10.89621,-4.35082 12.556641,-4.9043 2.155731,-0.97987 4.116381,0.78285 6.664062,6.66211 3.527558,8.035 3.527758,8.03475 7.447268,4.11524 3.91951,-3.91951 4.11491,-3.91951 9.40625,0 2.93963,1.95975 8.23154,4.1152 11.95508,4.70312 6.46719,0.97988 6.46656,0.97995 -0.39258,-1.17578 -3.72354,-1.17585 -9.01349,-3.72318 -11.95313,-5.87891 -4.50743,-3.1356 -5.4888,-3.33088 -7.64453,-0.7832 -3.72353,4.50744 -4.89944,3.72397 -9.798826,-7.05469 -2.547682,-5.48731 -5.48692,-10.38668 -6.466797,-10.97461 -0.122485,-0.0735 -0.226378,-0.11669 -0.3125,-0.13086 z m 90.265623,11.30079 c -0.39195,0 -2.93931,3.33244 -5.29101,7.25195 -2.54769,4.11548 -5.29161,8.62297 -6.27149,9.79883 -0.7839,1.37183 -1.17515,2.54687 -0.7832,2.54687 0.58793,0 9.40607,-12.15073 12.3457,-17.24609 0.14451,-0.28901 2.32918,0.49849 5.26563,1.86914 a 57.856132,57.856132 0 0 0 0.64648,-1.63867 c -3.06628,-1.49584 -5.45339,-2.58203 -5.91211,-2.58203 z m -25.18359,4.65429 c -0.14698,-0.049 -1.7625,1.02982 -4.9961,3.18555 -4.70341,3.13561 -6.07491,5.29021 -5.29101,7.83789 2.54768,8.23097 -15.28758,10.58375 -29.00586,3.72461 -6.85914,-3.33158 -7.44748,-3.33221 -3.91992,-0.39258 2.93963,2.35171 3.91999,4.31173 2.74414,6.27149 -2.54768,3.91951 -9.21103,0.98038 -18.421877,-8.23047 -4.311461,-4.50744 -6.466904,-6.07569 -4.703125,-3.33203 2.612037,3.91805 2.985912,4.7573 -0.792969,8.87695 a 57.856132,57.856132 0 0 0 1.140625,1.13281 c 3.577589,-3.16943 4.860734,-3.19584 7.492188,-1.38672 2.453288,1.9933 2.818368,2.96135 -0.02734,7.48828 a 57.856132,57.856132 0 0 0 1.38086,0.91797 c 3.195888,-4.39757 4.202038,-4.23868 8.248038,-2.13476 4.70342,2.54768 5.2929,2.35111 6.46875,-0.98047 0.97988,-3.33158 2.54763,-3.72402 11.5625,-2.74414 6.07524,0.58792 11.95428,0.19605 14.50196,-1.17578 3.52756,-1.95976 4.50634,-1.56865 7.25,3.13476 1.76378,3.13561 2.54886,3.72409 1.96094,1.56836 -5.09537,-15.09011 -5.0954,-15.28616 0.58789,-20.18554 2.64566,-2.35171 3.96729,-3.52718 3.82031,-3.57618 z m -22.63477,27.48633 c -8.8189,0.19598 -10.19004,0.78362 -11.16992,4.70313 -0.20798,0.83193 -0.42446,1.47311 -0.66992,2.00781 a 57.856132,57.856132 0 0 0 2.23437,0.4043 c 0.0659,-0.21865 0.13292,-0.40533 0.19922,-0.64844 0.7839,-3.72354 2.15475,-4.50785 5.48633,-3.91992 2.54768,0.39195 6.66326,-5.9e-4 9.21094,-0.98047 3.72353,-1.37183 2.548,-1.56641 -5.29102,-1.56641 z"
       transform="scale(5.1026787)" />
  </g>
</svg>
