<?xml version="1.0" encoding="UTF-8" standalone="no"?>
<svg
   xmlns:dc="http://purl.org/dc/elements/1.1/"
   xmlns:cc="http://creativecommons.org/ns#"
   xmlns:rdf="http://www.w3.org/1999/02/22-rdf-syntax-ns#"
   xmlns:svg="http://www.w3.org/2000/svg"
   xmlns="http://www.w3.org/2000/svg"
   xmlns:sodipodi="http://sodipodi.sourceforge.net/DTD/sodipodi-0.dtd"
   xmlns:inkscape="http://www.inkscape.org/namespaces/inkscape"
   width="600"
   height="600"
   viewBox="0 0 158.75 158.75"
   version="1.1"
   id="svg8"
   inkscape:version="1.0.1 (3bc2e813f5, 2020-09-07)"
   sodipodi:docname="multiplayer.svg"
   inkscape:export-filename="F:\repos\af-icons\png\multiplayer.png"
   inkscape:export-xdpi="95.839996"
   inkscape:export-ydpi="95.839996">
  <defs
     id="defs2" />
  <sodipodi:namedview
     id="base"
     pagecolor="#ffffff"
     bordercolor="#666666"
     borderopacity="1.0"
     inkscape:pageopacity="0.0"
     inkscape:pageshadow="2"
     inkscape:zoom="0.45254834"
     inkscape:cx="242.54555"
     inkscape:cy="-14.622175"
     inkscape:document-units="px"
     inkscape:current-layer="layer1"
     inkscape:document-rotation="0"
     showgrid="false"
     showborder="false"
     inkscape:window-width="1920"
     inkscape:window-height="1027"
     inkscape:window-x="1912"
     inkscape:window-y="22"
     inkscape:window-maximized="1"
     inkscape:snap-smooth-nodes="false"
     inkscape:object-paths="true"
     inkscape:snap-intersection-paths="false"
     inkscape:object-nodes="true"
     inkscape:snap-nodes="true"
     fit-margin-top="0"
     fit-margin-left="0"
     fit-margin-right="0"
     fit-margin-bottom="0"
     units="px"
     showguides="false" />
  <metadata
     id="metadata5">
    <rdf:RDF>
      <cc:Work
         rdf:about="">
        <dc:format>image/svg+xml</dc:format>
        <dc:type
           rdf:resource="http://purl.org/dc/dcmitype/StillImage" />
        <dc:title></dc:title>
      </cc:Work>
    </rdf:RDF>
  </metadata>
  <g
     inkscape:label="Layer 1"
     inkscape:groupmode="layer"
     id="layer1"
     transform="translate(103.42257,-92.534461)">
    <g
       id="g42">
      <path
         sodipodi:type="star"
         style="fill:#000000;stroke:none;stroke-width:8.0793;paint-order:stroke fill markers;stop-color:#000000"
         id="path23"
         sodipodi:sides="3"
         sodipodi:cx="86.17289"
         sodipodi:cy="172.40948"
         sodipodi:r1="91.654358"
         sodipodi:r2="91.654358"
         sodipodi:arg1="0.52359878"
         sodipodi:arg2="1.5707963"
         inkscape:flatsided="false"
         inkscape:rounded="0"
         inkscape:randomized="0"
         d="m 165.54789,218.23666 -79.374998,45.82718 -79.3750048,-45.82718 -1e-6,-91.65435 79.3750038,-45.827183 79.375,45.827173 z"
         inkscape:transform-center-x="-6.1295489e-06"
         inkscape:transform-center-y="2.9527168e-06"
         transform="matrix(0.43301269,0.74999998,-0.74999998,0.43301269,67.945593,32.624304)" />
      <path
         style="fill:#ffffff;stroke-width:2.90594"
         d="m -53.673764,199.18713 c -2.610759,-4.2243 3.865859,-11.59556 10.188233,-11.59556 2.805135,0 6.705483,-1.93419 8.66744,-4.29821 l 3.5672,-4.2982 -3.21138,-9.21217 c -1.766259,-5.06669 -3.21138,-13.56374 -3.21138,-18.88233 v -9.67018 l 7.26486,-4.76011 7.26485,-4.76012 7.537912,4.93902 7.5379024,4.93903 -1.7364121,13.55732 c -0.9550213,7.45653 -2.0586543,16.66081 -2.4525033,20.45396 l -0.716099,6.89663 5.0853994,2.54768 c 2.796961,1.40122 7.3738208,3.67095 10.1707906,5.04384 2.7969699,1.37289 5.0853998,4.31516 5.0853998,6.53837 v 5.71722 l -29.5531628,0.10125 -29.553164,-0.12512 z"
         id="path197"
         sodipodi:nodetypes="ssscsscccccsscssscccs" />
      <path
         style="fill:#ff0066;stroke-width:2.90594"
         d="m -58.983893,203.08993 c -1.065508,-1.06552 -1.937288,-4.3347 -1.937288,-7.26486 v -5.32756 h -10.170799 -10.1708 v -3.91484 c 0,-2.15317 2.925634,-5.2203 6.501401,-6.81586 l 6.501401,-2.901 0.03697,-15.7052 -5.951373,-6.94313 5.988342,-8.76206 7.889991,-0.90973 7.889982,-0.90973 6.286486,8.18314 c 0,0 -4.136092,3.48055 -3.988517,6.876 0.14247,3.27797 0.14694,6.86758 -0.02093,10.00785 l -0.552141,11.39069 -5.767197,11.43695 5.576834,-5.84956 6.744332,-1.81171 6.170498,-1.81086 -1.550744,-20.44623 -1.912899,-20.58206 5.229675,-5.77872 5.229674,-5.77871 h 7.817052 c 9.46184,0 16.0346204,6.96589 18.3926165,19.49269 l 1.7547126,9.32189 -4.1465588,9.92411 c -4.4503863,10.65128 0.7329712,19.58812 7.688251,15.48892 l 2.1725739,-1.28044 0.08092,-16.49655 -5.424987,-14.83197 6.5883197,-3.76754 c 2.8166395,-1.6107 8.8805921,-3.34398 12.5183791,-2.56191 l 12.186805,1.42236 -6.701564,16.48705 0.06737,17.21594 3.565071,1.18837 c 1.960783,0.65359 3.565062,3.04089 3.565062,5.3051 v 4.11675 h -8.889322 -7.613363 l -10.3671067,-5.50591 6.9643292,5.67738 2.9924495,2.47223 c 1.317781,1.08869 1.604182,4.72322 0.628863,7.26486 l -1.773302,4.62115 h -34.076077 c -18.74184,0 -34.947857,-0.87178 -36.013373,-1.93729 z M 7.3684488,196.6261 c 0,-2.22321 -2.2884299,-5.16548 -5.0853998,-6.53837 -2.7969698,-1.37289 -7.3738296,-3.64262 -10.1707906,-5.04384 l -5.0853994,-2.54768 0.716099,-6.89663 c 0.393849,-3.79315 1.497482,-12.99743 2.4525033,-20.45396 l 1.7364121,-13.55732 -7.5379024,-4.93903 -7.537912,-4.93902 -7.26485,4.76012 -7.26486,4.76011 v 9.67018 c 0,5.31859 1.445121,13.81564 3.21138,18.88233 l 3.21138,9.21217 -3.5672,4.2982 c -1.961957,2.36402 -5.862305,4.29821 -8.66744,4.29821 -6.322374,0 -12.798992,7.37126 -10.188233,11.59556 l 1.935886,3.13232 29.552147,0.12512 29.5541798,-0.10125 z"
         id="path195"
         sodipodi:nodetypes="sscccsscccccccsscccccccccsscsscccsscccsscccccsscsssssscsscccccsscssscccs" />
    </g>
  </g>
</svg>
